# xmcd CD database file
#
# Track frame offsets:
#	150
#	6987
#	34083
#	54342
#	76512
#	93256
#	106300
#	129893
#	151361
#	174768
#	193583
#
# Disc length: 2805 seconds
#
# Revision: 0
# Processed by: cddbd v1.5.2PL0 Copyright (c) Steve Scherf et al.
# Submitted via: CDex 1.51
#
DISCID=710af30b
DTITLE=Ray Lema and Laurent De Wilde - Riddles
DYEAR=2016
DGENRE=Jazz
TTITLE0=Intro
TTITLE1=Cookies
TTITLE2=Fantani
TTITLE3=Riddles
TTITLE4=Congo Rag
TTITLE5=Too Many Keys
TTITLE6=The Wizard
TTITLE7=Liane Et Banian
TTITLE8=Matongué
TTITLE9=Around The World In A Day
TTITLE10=Fantani (Radio Edit)
EXTD=YEAR: 2016
EXTT0=
EXTT1=
EXTT2=
EXTT3=
EXTT4=
EXTT5=
EXTT6=
EXTT7=
EXTT8=
EXTT9=
EXTT10=
PLAYORDER=
